# xmcd
#
# Track frame offsets: 
#        150
#        14795
#        24950
#        38275
#        51742
#        64632
#        76520
#        90692
#        104602
#        119250
#        131165
#        148322
#        161395
#        173150
#        186917
#        196477
#        207830
#        218365
#        229759
#        242422
#
# Disc length: 3383 seconds
#
# Revision: 3
# Processed by: cddbd v1.5.2PL0 Copyright (c) Steve Scherf et al.
# Submitted via: ExactAudioCopy v1.1
#
DISCID=100d3514
DTITLE=Various Artist - Country Superhits
DYEAR=1999
DGENRE=Country
TTITLE0=Loretta Lynn - Coal Miners Daughter
TTITLE1=Dolly Parton - Please release me
TTITLE2=Don Williams - Ruby Tuesday
TTITLE3=Lyn Anderson - Top of the world
TTITLE4=Charlie Rich - The most beautful girl
TTITLE5=Elvis Presley - That's alright mama
TTITLE6=Lobo - Me and you and a dog named Boo
TTITLE7=Willie Nelson - Home is where you're happy
TTITLE8=Jeannie C Riley - Harper Valley PTA
TTITLE9=Patsy Cline - Walking after midnight
TTITLE10=Charlie McCoy - You were always on my mind
TTITLE11=Kenney Rogers - Ruby don't take your love to town
TTITLE12=Skeeter Davis - End of the world
TTITLE13=Jimmy Dean - Big Bad John
TTITLE14=Merle Haggard - Legend of Bonnie and Clyde
TTITLE15=Conway Twitty - Hello Darlin'
TTITLE16=Ricky Nelson - Hello Mary Lou
TTITLE17=Donna Fargo - Happiest girl in the whole USA
TTITLE18=Frankie Lane - High Noon
TTITLE19=Tom Jones - I'm so lonesome I could cry
EXTD=Country Style
EXTT0=
EXTT1=
EXTT2=
EXTT3=
EXTT4=
EXTT5=
EXTT6=
EXTT7=
EXTT8=
EXTT9=
EXTT10=
EXTT11=
EXTT12=
EXTT13=
EXTT14=
EXTT15=
EXTT16=
EXTT17=
EXTT18=
EXTT19=
PLAYORDER=
